<svg width="78" height="50" viewBox="0 0 78 50" fill="none" xmlns="http://www.w3.org/2000/svg">
<path d="M43.3249 45.2451H39.4297V49.1403H43.3249V45.2451Z" fill="#D31F3C"/>
<path d="M15.0599 30.7456H11.2534H7.35771V34.6413V45.2452H3.89517V22.772H0V45.2452V49.1404H3.89517H7.35771H10.9287H11.2534V34.6413H15.0599V37.9954V41.8906V45.2452V49.1404H18.955H21.9849V45.2452H18.955V41.8906H21.8765V37.9954H18.955V34.6413H21.9849V30.7456H18.955H15.0599Z" fill="#D31F3C"/>
<path d="M29.7819 30.7314H25.8867V45.2453V49.1405H29.7819H35.6249V45.2453H29.7819V30.7314Z" fill="#D31F3C"/>
<path d="M37.5354 30.7159V26.5596H73.8293H75.2715H77.7225V0H77.7136H73.8293H0.0166016V3.8932H73.8293V22.6664H33.6422V22.6812V26.5596V34.5303V34.6086L74.1067 34.6136V45.2451H47.209V49.1403H77.9999V48.5499V45.2451V34.6136V31.2742V30.7204L37.5354 30.7159Z" fill="#D31F3C"/>
<path d="M69.8907 37.9756H39.4531V41.8688H69.8907V37.9756Z" fill="#D31F3C"/>
<path d="M29.8658 22.75H7.34375V26.6432H29.8658V22.75Z" fill="#D31F3C"/>
<path d="M33.3929 7.4917H0.0166016V11.3849H33.3929V7.4917Z" fill="#D31F3C"/>
<path d="M0.0166016 15.0471V18.9403H66.2419V18.9728H69.9351V11.4332V7.53955H66.2419H37.2821V11.4332H66.2419V15.0471H0.0166016Z" fill="#D31F3C"/>
</svg>
