<svg width="95" height="96" viewBox="0 0 95 96" fill="none" xmlns="http://www.w3.org/2000/svg">
<path d="M94.5937 74.7771V74.7432H37.1855V79.0781H90.2652V91.0052H52.5951V95.3402H90.2652H90.8467H94.6001V74.7771H94.5937Z" fill="#D31F3C"/>
<path d="M85.7308 82.8955H44.0342V87.2305H85.7308V82.8955Z" fill="#D31F3C"/>
<path d="M37.9912 41.0693H33.6562V45.4043H37.9912V41.0693Z" fill="#D31F3C"/>
<path d="M94.5933 41.2705H59.5439V45.6055H94.5933V41.2705Z" fill="#D31F3C"/>
<path d="M94.5931 69.2382H94.5966V50.0015H94.5931V49.9834H55.1807V37.3396H94.5931V35.1022H94.5996V0.586364H94.5984L94.5996 0.0703125H75.9609V4.40526H90.264V33.0046H55.1807H50.882H50.8452V54.3184H52.3933H55.1807H90.2617V65.9705H28.8252V70.3054H94.5931V69.2382Z" fill="#D31F3C"/>
<path d="M86.3749 8.10986H71.5293V12.4448H86.3749V8.10986Z" fill="#D31F3C"/>
<path d="M62.9683 57.9053H26.4082V62.2402H62.9683V57.9053Z" fill="#D31F3C"/>
<path d="M85.8314 57.9053H67.2998V62.2402H85.8314V57.9053Z" fill="#D31F3C"/>
<path d="M48.3594 90.9829H44.0244V95.3179H48.3594V90.9829Z" fill="#D31F3C"/>
<path d="M21.2187 57.9409H16.8838V70.3437H21.2187V57.9409Z" fill="#D31F3C"/>
<path d="M29.2856 41.083V24.9473H16.7617V45.4179H29.2856V41.083ZM24.9501 41.083H21.0973V29.2822H24.9501V41.083Z" fill="#D31F3C"/>
<path d="M42.138 37.3501V49.8735H26.416V54.2084H42.138H46.473V49.8735V37.3501V33.0152H42.138H37.8792V29.2823H42.6114H85.9322V29.2484H85.9328V16.1762H85.9322H81.5979H63.3307V12.4433H67.1841V8.10837H63.3307V4.37548H71.7314V0.0405273H63.3307H58.9957V4.37548V8.10837V12.4433V16.1762V20.5112H81.5979V24.9473H46.0675V24.9468H37.8792H33.5442V29.2823V33.0152V37.3501H37.8792H42.138Z" fill="#D31F3C"/>
<path d="M16.8019 74.8466H12.5658H8.23089V79.1815V90.9828H4.37747V70.3443H8.18935H12.5243V66.0087V62.2758V57.9409H8.18935H4.33593V54.208H12.5243V49.873H4.33593H0.000976562V54.208V57.9409V62.2758H4.33593H8.18935V66.0087H0.0425182V68.2239V70.3443V90.9828V95.3178H4.37747H8.23089H12.2043H12.5658V79.1815H16.8019V82.9144V87.2494V90.9828V95.3178H21.1369H24.5088V90.9828H21.1369V87.2494H24.3882V82.9144H21.1369V79.1815H24.5088V74.8466H21.1369H16.8019Z" fill="#D31F3C"/>
<path d="M21.0976 8.69678H16.7627V20.511H21.0976V8.69678Z" fill="#D31F3C"/>
<path d="M31.9578 20.5112V16.1762H29.79V0.0405273H25.4551V16.1762V20.5112H29.79H31.9578Z" fill="#D31F3C"/>
<path d="M33.1865 74.8311H28.8516V90.9831V95.3181H33.1865H39.6892V90.9831H33.1865V74.8311Z" fill="#D31F3C"/>
<path d="M38.3799 4.37548H42.2333V12.4433V20.5112H46.5682V12.4433V4.37548H50.3017V20.5112H54.6367V4.37548V0.0405273H50.3017H46.5682H42.2333H38.3799H34.0449V4.37548V20.5112H38.3799V4.37548Z" fill="#D31F3C"/>
<path d="M4.33495 37.3498H12.404V24.9458H0V45.4176H4.33495V37.3498ZM4.33495 29.2819H8.06784V33.0148H4.33495V29.2819Z" fill="#D31F3C"/>
<path d="M4.33593 12.4433H8.30988V8.10837H4.33593V4.37548H12.4038V0.0405273H4.33593H0.000976562V4.37548V8.10837V12.4433V20.5112H4.33593V12.4433Z" fill="#D31F3C"/>
<path d="M16.8916 52.0674V54.2112H21.1815V49.9219L16.8916 52.0674Z" fill="#D31F3C"/>
<path d="M21.0801 0H16.7451V4.33495H21.0801V0Z" fill="#D31F3C"/>
</svg>
