<svg width="163" height="217" viewBox="0 0 163 217" fill="none" xmlns="http://www.w3.org/2000/svg">
<path d="M86.5862 93.4976H76.7061V103.367H86.5862V93.4976Z" fill="#C4C4C4"/>
<path d="M110.217 207.131H100.337V217H110.217V207.131Z" fill="#C4C4C4"/>
<path d="M48.3567 131.909H38.4766V160.145H48.3567V131.909Z" fill="#C4C4C4"/>
<path d="M66.74 93.5285V56.7935H38.2021V103.397H66.74V93.5285ZM56.8573 93.5285H48.0823V66.665H56.865L56.8573 93.5285Z" fill="#C4C4C4"/>
<path d="M38.2922 170.396H28.6367H18.7566V180.265V207.131H9.9751V160.145H18.6629H28.543V150.276V141.777V131.908H18.6629H9.88012V123.41H28.543V113.541H9.88012H0V123.41V131.908V141.777H9.88012H18.6629V150.276H0.093693V155.318V160.145V207.131V217H9.9751H18.7566H27.814H28.6367V180.265H38.2922V188.763V198.632V207.131V217H48.1723H55.8577V207.131H48.1723V198.632H55.5831V188.763H48.1723V180.265H55.8577V170.396H48.1723H38.2922Z" fill="#C4C4C4"/>
<path d="M48.0823 19.7993H38.2021V46.6948H48.0823V19.7993Z" fill="#C4C4C4"/>
<path d="M72.8329 46.6953V36.8263H67.8928V0.0913086H58.0127V36.8263V46.6953H67.8928H72.8329Z" fill="#C4C4C4"/>
<path d="M75.635 170.359H65.7549V207.131V217H75.635H90.4552V207.131H75.635V170.359Z" fill="#C4C4C4"/>
<path d="M87.4719 9.9603H96.2547V28.3278V46.6953H106.135V28.3278V9.9603H114.643V46.6953H124.523V9.9603V0.0913086H114.643H106.135H96.2547H87.4719H77.5918V9.9603V46.6953H87.4719V9.9603Z" fill="#C4C4C4"/>
<path d="M163 9.9603V0.0913086H144.337H134.457V9.9603V18.4588V28.3291V36.8263V46.6966H151.268V56.7938H104.993H86.3297H76.4495V66.6628V75.1613V85.0303H86.3297H95.1124V113.541H60.2021V123.41H95.1124H104.993V113.541V85.0303V75.1613H95.1124H86.3297V66.6628H97.1146H161.148V61.5001V56.7938V36.8263H160.961H151.268H144.337V28.3291H153.12V18.4588H144.337V9.9603H163Z" fill="#C4C4C4"/>
<path d="M9.88269 85.03H28.2683V56.7935H0V103.397H9.88269V85.03ZM9.88269 66.665H18.3908V75.1635H9.88269V66.665Z" fill="#C4C4C4"/>
<path d="M9.88012 28.3293H18.9375V18.4603H9.88012V9.96177H28.2683V0.0927734H9.88012H0V9.96177V18.4603V28.3293V46.6981H9.88012V28.3293Z" fill="#C4C4C4"/>
<path d="M38.4971 118.536V123.418H48.2732V113.651L38.4971 118.536Z" fill="#C4C4C4"/>
<path d="M48.0432 0H38.1631V9.86899H48.0432V0Z" fill="#C4C4C4"/>
</svg>
