<svg width="494" height="659" viewBox="0 0 494 659" fill="none" xmlns="http://www.w3.org/2000/svg">
<path d="M262.414 283.663H232.471V313.604H262.414V283.663Z" fill="#5C772B"/>
<path d="M334.031 628.413H304.088V658.355H334.031V628.413Z" fill="#5C772B"/>
<path d="M146.555 400.197H116.611V485.863H146.555V400.197Z" fill="#5C772B"/>
<path d="M202.268 283.756V172.306H115.779V313.698H202.268V283.756ZM172.317 283.756H145.723V202.255H172.34L172.317 283.756Z" fill="#5C772B"/>
<path d="M116.051 516.963H86.7886H56.8451V546.904V628.413H30.2313V485.862H56.5612H86.5046V455.921V430.137V400.195H56.5612H29.9435V374.412H86.5046V344.47H29.9435H0V374.412V400.195V430.137H29.9435H56.5612V455.921H0.283953V471.218V485.862V628.413V658.354H30.2313H56.8451H84.2952H86.7886V546.904H116.051V572.688V602.629V628.413V658.354H145.995H169.287V628.413H145.995V602.629H168.454V572.688H145.995V546.904H169.287V516.963H145.995H116.051Z" fill="#5C772B"/>
<path d="M145.723 60.0698H115.779V141.668H145.723V60.0698Z" fill="#5C772B"/>
<path d="M220.734 141.669V111.727H205.762V0.276855H175.818V111.727V141.669H205.762H220.734Z" fill="#5C772B"/>
<path d="M229.224 516.851H199.28V628.414V658.356H229.224H274.139V628.414H229.224V516.851Z" fill="#5C772B"/>
<path d="M265.1 30.2184H291.717V85.9435V141.669H321.661V85.9435V30.2184H347.446V141.669H377.39V30.2184V0.276855H347.446H321.661H291.717H265.1H235.156V30.2184V141.669H265.1V30.2184Z" fill="#5C772B"/>
<path d="M494 30.2184V0.276855H437.439H407.496V30.2184V56.002V85.9474V111.727V141.673H458.444V172.306H318.198H261.637H231.694V202.248V228.032V257.973H261.637H288.255V344.472H182.453V374.414H288.255H318.198V344.472V257.973V228.032H288.255H261.637V202.248H294.323H488.387V186.585V172.306V111.727H487.82H458.444H437.439V85.9474H464.057V56.002H437.439V30.2184H494Z" fill="#5C772B"/>
<path d="M29.9512 257.973H85.6722V172.306H0V313.698H29.9512V257.973ZM29.9512 202.255H55.7365V228.039H29.9512V202.255Z" fill="#5C772B"/>
<path d="M29.9435 85.9479H57.3936V56.0064H29.9435V30.2228H85.6722V0.28125H29.9435H0V30.2228V56.0064V85.9479V141.677H29.9435V85.9479Z" fill="#5C772B"/>
<path d="M116.67 359.625V374.437H146.298V344.806L116.67 359.625Z" fill="#5C772B"/>
<path d="M145.603 0H115.659V29.9415H145.603V0Z" fill="#5C772B"/>
</svg>
